<mxfile host="app.diagrams.net" modified="2024-04-21T16:08:31.168Z" agent="Mozilla/5.0 (Windows NT 10.0; Win64; x64) AppleWebKit/537.36 (KHTML, like Gecko) Chrome/123.0.0.0 Safari/537.36" etag="5C47k8I3dS7kRI8SfuRV" version="24.2.7" type="github">
  <diagram name="PÃ¡gina-1" id="-uep1HCt1FiG-Evjr2MG">
    <mxGraphModel dx="2185" dy="622" grid="1" gridSize="10" guides="1" tooltips="1" connect="1" arrows="1" fold="1" page="1" pageScale="1" pageWidth="827" pageHeight="1169" math="0" shadow="0">
      <root>
        <mxCell id="0" />
        <mxCell id="1" parent="0" />
        <mxCell id="6_PPU3eyBQLPcWbkXIiB-1" value="Sistema" style="shape=umlLifeline;perimeter=lifelinePerimeter;whiteSpace=wrap;html=1;container=1;dropTarget=0;collapsible=0;recursiveResize=0;outlineConnect=0;portConstraint=eastwest;newEdgeStyle={&quot;curved&quot;:0,&quot;rounded&quot;:0};" vertex="1" parent="1">
          <mxGeometry x="130" y="50" width="100" height="540" as="geometry" />
        </mxCell>
        <mxCell id="6_PPU3eyBQLPcWbkXIiB-3" value="" style="html=1;points=[[0,0,0,0,5],[0,1,0,0,-5],[1,0,0,0,5],[1,1,0,0,-5]];perimeter=orthogonalPerimeter;outlineConnect=0;targetShapes=umlLifeline;portConstraint=eastwest;newEdgeStyle={&quot;curved&quot;:0,&quot;rounded&quot;:0};" vertex="1" parent="6_PPU3eyBQLPcWbkXIiB-1">
          <mxGeometry x="45" y="90" width="10" height="340" as="geometry" />
        </mxCell>
        <mxCell id="6_PPU3eyBQLPcWbkXIiB-4" value="mostrarNomeFilmesAlugados(nome)" style="html=1;verticalAlign=bottom;startArrow=oval;endArrow=block;startSize=8;curved=0;rounded=0;entryX=0;entryY=0;entryDx=0;entryDy=5;" edge="1" target="6_PPU3eyBQLPcWbkXIiB-3" parent="6_PPU3eyBQLPcWbkXIiB-1">
          <mxGeometry relative="1" as="geometry">
            <mxPoint x="-130" y="95" as="sourcePoint" />
          </mxGeometry>
        </mxCell>
        <mxCell id="6_PPU3eyBQLPcWbkXIiB-5" style="edgeStyle=orthogonalEdgeStyle;rounded=0;orthogonalLoop=1;jettySize=auto;html=1;curved=0;exitX=1;exitY=0;exitDx=0;exitDy=5;exitPerimeter=0;" edge="1" parent="6_PPU3eyBQLPcWbkXIiB-1" source="6_PPU3eyBQLPcWbkXIiB-3" target="6_PPU3eyBQLPcWbkXIiB-3">
          <mxGeometry relative="1" as="geometry">
            <Array as="points">
              <mxPoint x="55" y="110" />
              <mxPoint x="120" y="110" />
              <mxPoint x="120" y="140" />
            </Array>
          </mxGeometry>
        </mxCell>
        <mxCell id="6_PPU3eyBQLPcWbkXIiB-6" value="cliente = buscarClientePorNome(nome)" style="text;html=1;align=center;verticalAlign=middle;resizable=0;points=[];autosize=1;strokeColor=none;fillColor=none;" vertex="1" parent="1">
          <mxGeometry x="180" y="140" width="230" height="30" as="geometry" />
        </mxCell>
        <mxCell id="6_PPU3eyBQLPcWbkXIiB-10" value="Cliente" style="shape=umlLifeline;perimeter=lifelinePerimeter;whiteSpace=wrap;html=1;container=1;dropTarget=0;collapsible=0;recursiveResize=0;outlineConnect=0;portConstraint=eastwest;newEdgeStyle={&quot;curved&quot;:0,&quot;rounded&quot;:0};" vertex="1" parent="1">
          <mxGeometry x="360" y="60" width="100" height="530" as="geometry" />
        </mxCell>
        <mxCell id="6_PPU3eyBQLPcWbkXIiB-12" value="" style="html=1;points=[[0,0,0,0,5],[0,1,0,0,-5],[1,0,0,0,5],[1,1,0,0,-5]];perimeter=orthogonalPerimeter;outlineConnect=0;targetShapes=umlLifeline;portConstraint=eastwest;newEdgeStyle={&quot;curved&quot;:0,&quot;rounded&quot;:0};" vertex="1" parent="6_PPU3eyBQLPcWbkXIiB-10">
          <mxGeometry x="44" y="170" width="10" height="180" as="geometry" />
        </mxCell>
        <mxCell id="6_PPU3eyBQLPcWbkXIiB-11" value="Aluguel" style="shape=umlLifeline;perimeter=lifelinePerimeter;whiteSpace=wrap;html=1;container=1;dropTarget=0;collapsible=0;recursiveResize=0;outlineConnect=0;portConstraint=eastwest;newEdgeStyle={&quot;curved&quot;:0,&quot;rounded&quot;:0};size=40;" vertex="1" parent="1">
          <mxGeometry x="510" y="60" width="100" height="530" as="geometry" />
        </mxCell>
        <mxCell id="6_PPU3eyBQLPcWbkXIiB-19" value="" style="html=1;points=[[0,0,0,0,5],[0,1,0,0,-5],[1,0,0,0,5],[1,1,0,0,-5]];perimeter=orthogonalPerimeter;outlineConnect=0;targetShapes=umlLifeline;portConstraint=eastwest;newEdgeStyle={&quot;curved&quot;:0,&quot;rounded&quot;:0};" vertex="1" parent="6_PPU3eyBQLPcWbkXIiB-11">
          <mxGeometry x="45" y="210" width="10" height="100" as="geometry" />
        </mxCell>
        <mxCell id="6_PPU3eyBQLPcWbkXIiB-13" value="obterTituloFilmesAlugados()" style="html=1;verticalAlign=bottom;endArrow=block;curved=0;rounded=0;entryX=0;entryY=0;entryDx=0;entryDy=5;" edge="1" target="6_PPU3eyBQLPcWbkXIiB-12" parent="1" source="6_PPU3eyBQLPcWbkXIiB-3">
          <mxGeometry relative="1" as="geometry">
            <mxPoint x="414" y="225" as="sourcePoint" />
          </mxGeometry>
        </mxCell>
        <mxCell id="6_PPU3eyBQLPcWbkXIiB-15" value="Fita" style="shape=umlLifeline;perimeter=lifelinePerimeter;whiteSpace=wrap;html=1;container=1;dropTarget=0;collapsible=0;recursiveResize=0;outlineConnect=0;portConstraint=eastwest;newEdgeStyle={&quot;curved&quot;:0,&quot;rounded&quot;:0};size=40;" vertex="1" parent="1">
          <mxGeometry x="660" y="60" width="100" height="530" as="geometry" />
        </mxCell>
        <mxCell id="6_PPU3eyBQLPcWbkXIiB-18" value="getTituloFita()" style="html=1;verticalAlign=bottom;endArrow=block;curved=0;rounded=0;" edge="1" parent="1" source="6_PPU3eyBQLPcWbkXIiB-12" target="6_PPU3eyBQLPcWbkXIiB-19">
          <mxGeometry width="80" relative="1" as="geometry">
            <mxPoint x="420" y="260" as="sourcePoint" />
            <mxPoint x="500" y="260" as="targetPoint" />
          </mxGeometry>
        </mxCell>
        <mxCell id="6_PPU3eyBQLPcWbkXIiB-20" value="" style="html=1;points=[[0,0,0,0,5],[0,1,0,0,-5],[1,0,0,0,5],[1,1,0,0,-5]];perimeter=orthogonalPerimeter;outlineConnect=0;targetShapes=umlLifeline;portConstraint=eastwest;newEdgeStyle={&quot;curved&quot;:0,&quot;rounded&quot;:0};" vertex="1" parent="1">
          <mxGeometry x="705" y="320" width="10" height="50" as="geometry" />
        </mxCell>
        <mxCell id="6_PPU3eyBQLPcWbkXIiB-21" value="getTitulo()" style="html=1;verticalAlign=bottom;endArrow=block;curved=0;rounded=0;" edge="1" parent="1" target="6_PPU3eyBQLPcWbkXIiB-20">
          <mxGeometry width="80" relative="1" as="geometry">
            <mxPoint x="570" y="334.74" as="sourcePoint" />
            <mxPoint x="750" y="335" as="targetPoint" />
          </mxGeometry>
        </mxCell>
        <mxCell id="6_PPU3eyBQLPcWbkXIiB-14" value="String com todos os titulos das fitas" style="html=1;verticalAlign=bottom;endArrow=open;dashed=1;endSize=8;curved=0;rounded=0;exitX=0;exitY=1;exitDx=0;exitDy=-5;" edge="1" source="6_PPU3eyBQLPcWbkXIiB-12" parent="1" target="6_PPU3eyBQLPcWbkXIiB-3">
          <mxGeometry relative="1" as="geometry">
            <mxPoint x="340" y="295" as="targetPoint" />
          </mxGeometry>
        </mxCell>
        <mxCell id="6_PPU3eyBQLPcWbkXIiB-22" value="loop - enquanto houver aluguel" style="shape=umlFrame;whiteSpace=wrap;html=1;pointerEvents=0;width=120;height=35;" vertex="1" parent="1">
          <mxGeometry x="370" y="265" width="370" height="125" as="geometry" />
        </mxCell>
      </root>
    </mxGraphModel>
  </diagram>
</mxfile>
